<mxfile host="app.diagrams.net" modified="2022-01-15T15:25:02.122Z" agent="5.0 (Windows NT 10.0; Win64; x64) AppleWebKit/537.36 (KHTML, like Gecko) Chrome/93.0.4577.82 Safari/537.36" etag="3IBa9zkZqteFlqW_11iR" version="16.2.7" type="github">
  <diagram id="-Puwfxj4gN2daerdG76q" name="第 1 页">
    <mxGraphModel dx="1886" dy="810" grid="1" gridSize="10" guides="1" tooltips="1" connect="1" arrows="1" fold="1" page="1" pageScale="1" pageWidth="827" pageHeight="1169" math="0" shadow="0">
      <root>
        <mxCell id="0" />
        <mxCell id="1" parent="0" />
        <mxCell id="OQUtQliWMoo-Rx1EAT6z-1" value="&lt;font face=&quot;Comic Sans MS&quot; style=&quot;font-size: 14px&quot;&gt;2&lt;/font&gt;" style="rounded=0;whiteSpace=wrap;html=1;fillColor=#dae8fc;strokeColor=#6c8ebf;shadow=1;" vertex="1" parent="1">
          <mxGeometry x="320" y="280" width="40" height="40" as="geometry" />
        </mxCell>
        <mxCell id="OQUtQliWMoo-Rx1EAT6z-40" style="edgeStyle=orthogonalEdgeStyle;curved=1;rounded=0;orthogonalLoop=1;jettySize=auto;html=1;exitX=0.5;exitY=0;exitDx=0;exitDy=0;entryX=0.5;entryY=0;entryDx=0;entryDy=0;fontFamily=Comic Sans MS;fontSize=14;" edge="1" parent="1" source="OQUtQliWMoo-Rx1EAT6z-2" target="OQUtQliWMoo-Rx1EAT6z-5">
          <mxGeometry relative="1" as="geometry">
            <Array as="points">
              <mxPoint x="380" y="250" />
              <mxPoint x="500" y="250" />
            </Array>
          </mxGeometry>
        </mxCell>
        <mxCell id="OQUtQliWMoo-Rx1EAT6z-2" value="&lt;font face=&quot;Comic Sans MS&quot; style=&quot;font-size: 14px&quot;&gt;3&lt;/font&gt;" style="rounded=0;whiteSpace=wrap;html=1;fillColor=#f8cecc;strokeColor=#b85450;shadow=1;" vertex="1" parent="1">
          <mxGeometry x="360" y="280" width="40" height="40" as="geometry" />
        </mxCell>
        <mxCell id="OQUtQliWMoo-Rx1EAT6z-41" style="edgeStyle=orthogonalEdgeStyle;curved=1;rounded=0;orthogonalLoop=1;jettySize=auto;html=1;exitX=0.5;exitY=0;exitDx=0;exitDy=0;entryX=0.5;entryY=0;entryDx=0;entryDy=0;fontFamily=Comic Sans MS;fontSize=14;" edge="1" parent="1" source="OQUtQliWMoo-Rx1EAT6z-3" target="OQUtQliWMoo-Rx1EAT6z-4">
          <mxGeometry relative="1" as="geometry" />
        </mxCell>
        <mxCell id="OQUtQliWMoo-Rx1EAT6z-3" value="&lt;font face=&quot;Comic Sans MS&quot; style=&quot;font-size: 14px&quot;&gt;1&lt;/font&gt;" style="rounded=0;whiteSpace=wrap;html=1;fillColor=#f8cecc;strokeColor=#b85450;shadow=1;" vertex="1" parent="1">
          <mxGeometry x="400" y="280" width="40" height="40" as="geometry" />
        </mxCell>
        <mxCell id="OQUtQliWMoo-Rx1EAT6z-4" value="&lt;font face=&quot;Comic Sans MS&quot; style=&quot;font-size: 14px&quot;&gt;1&lt;/font&gt;" style="rounded=0;whiteSpace=wrap;html=1;fillColor=#dae8fc;strokeColor=#6c8ebf;shadow=1;" vertex="1" parent="1">
          <mxGeometry x="440" y="280" width="40" height="40" as="geometry" />
        </mxCell>
        <mxCell id="OQUtQliWMoo-Rx1EAT6z-5" value="&lt;font face=&quot;Comic Sans MS&quot; style=&quot;font-size: 14px&quot;&gt;4&lt;/font&gt;" style="rounded=0;whiteSpace=wrap;html=1;fillColor=#dae8fc;strokeColor=#6c8ebf;shadow=1;" vertex="1" parent="1">
          <mxGeometry x="480" y="280" width="40" height="40" as="geometry" />
        </mxCell>
        <mxCell id="OQUtQliWMoo-Rx1EAT6z-6" value="begin" style="text;html=1;strokeColor=none;fillColor=none;align=center;verticalAlign=middle;whiteSpace=wrap;rounded=0;shadow=1;fontFamily=Comic Sans MS;fontSize=14;" vertex="1" parent="1">
          <mxGeometry x="360" y="320" width="40" height="40" as="geometry" />
        </mxCell>
        <mxCell id="OQUtQliWMoo-Rx1EAT6z-7" value="end" style="text;html=1;strokeColor=none;fillColor=none;align=center;verticalAlign=middle;whiteSpace=wrap;rounded=0;shadow=1;fontFamily=Comic Sans MS;fontSize=14;" vertex="1" parent="1">
          <mxGeometry x="400" y="320" width="40" height="40" as="geometry" />
        </mxCell>
        <mxCell id="OQUtQliWMoo-Rx1EAT6z-8" value="&lt;font face=&quot;Comic Sans MS&quot; style=&quot;font-size: 14px&quot;&gt;2&lt;/font&gt;" style="rounded=0;whiteSpace=wrap;html=1;fillColor=#dae8fc;strokeColor=#6c8ebf;shadow=1;" vertex="1" parent="1">
          <mxGeometry x="320" y="370" width="40" height="40" as="geometry" />
        </mxCell>
        <mxCell id="OQUtQliWMoo-Rx1EAT6z-9" value="&lt;font face=&quot;Comic Sans MS&quot; style=&quot;font-size: 14px&quot;&gt;3&lt;/font&gt;" style="rounded=0;whiteSpace=wrap;html=1;fillColor=#dae8fc;strokeColor=#6c8ebf;shadow=1;" vertex="1" parent="1">
          <mxGeometry x="360" y="370" width="40" height="40" as="geometry" />
        </mxCell>
        <mxCell id="OQUtQliWMoo-Rx1EAT6z-10" value="&lt;font face=&quot;Comic Sans MS&quot; style=&quot;font-size: 14px&quot;&gt;1&lt;/font&gt;" style="rounded=0;whiteSpace=wrap;html=1;fillColor=#dae8fc;strokeColor=#6c8ebf;shadow=1;" vertex="1" parent="1">
          <mxGeometry x="400" y="370" width="40" height="40" as="geometry" />
        </mxCell>
        <mxCell id="OQUtQliWMoo-Rx1EAT6z-47" style="edgeStyle=orthogonalEdgeStyle;curved=1;rounded=0;orthogonalLoop=1;jettySize=auto;html=1;exitX=0.5;exitY=0;exitDx=0;exitDy=0;fontFamily=Comic Sans MS;fontSize=14;" edge="1" parent="1" source="OQUtQliWMoo-Rx1EAT6z-11">
          <mxGeometry relative="1" as="geometry">
            <mxPoint x="500" y="370" as="targetPoint" />
          </mxGeometry>
        </mxCell>
        <mxCell id="OQUtQliWMoo-Rx1EAT6z-11" value="&lt;font face=&quot;Comic Sans MS&quot; style=&quot;font-size: 14px&quot;&gt;1&lt;/font&gt;" style="rounded=0;whiteSpace=wrap;html=1;fillColor=#f8cecc;strokeColor=#b85450;shadow=1;" vertex="1" parent="1">
          <mxGeometry x="440" y="370" width="40" height="40" as="geometry" />
        </mxCell>
        <mxCell id="OQUtQliWMoo-Rx1EAT6z-46" style="edgeStyle=orthogonalEdgeStyle;curved=1;rounded=0;orthogonalLoop=1;jettySize=auto;html=1;exitX=0.5;exitY=0;exitDx=0;exitDy=0;entryX=0.5;entryY=0;entryDx=0;entryDy=0;fontFamily=Comic Sans MS;fontSize=14;" edge="1" parent="1" source="OQUtQliWMoo-Rx1EAT6z-12" target="OQUtQliWMoo-Rx1EAT6z-45">
          <mxGeometry relative="1" as="geometry">
            <Array as="points">
              <mxPoint x="500" y="340" />
              <mxPoint x="660" y="340" />
            </Array>
          </mxGeometry>
        </mxCell>
        <mxCell id="OQUtQliWMoo-Rx1EAT6z-12" value="&lt;font face=&quot;Comic Sans MS&quot; style=&quot;font-size: 14px&quot;&gt;4&lt;/font&gt;" style="rounded=0;whiteSpace=wrap;html=1;fillColor=#f8cecc;strokeColor=#b85450;shadow=1;" vertex="1" parent="1">
          <mxGeometry x="480" y="370" width="40" height="40" as="geometry" />
        </mxCell>
        <mxCell id="OQUtQliWMoo-Rx1EAT6z-13" value="begin" style="text;html=1;strokeColor=none;fillColor=none;align=center;verticalAlign=middle;whiteSpace=wrap;rounded=0;shadow=1;fontFamily=Comic Sans MS;fontSize=14;" vertex="1" parent="1">
          <mxGeometry x="440" y="410" width="40" height="40" as="geometry" />
        </mxCell>
        <mxCell id="OQUtQliWMoo-Rx1EAT6z-14" value="end" style="text;html=1;strokeColor=none;fillColor=none;align=center;verticalAlign=middle;whiteSpace=wrap;rounded=0;shadow=1;fontFamily=Comic Sans MS;fontSize=14;" vertex="1" parent="1">
          <mxGeometry x="480" y="410" width="40" height="40" as="geometry" />
        </mxCell>
        <mxCell id="OQUtQliWMoo-Rx1EAT6z-20" value="&lt;font face=&quot;Comic Sans MS&quot; style=&quot;font-size: 14px&quot;&gt;2&lt;/font&gt;" style="rounded=0;whiteSpace=wrap;html=1;fillColor=#dae8fc;strokeColor=#6c8ebf;shadow=1;" vertex="1" parent="1">
          <mxGeometry x="320" y="460" width="40" height="40" as="geometry" />
        </mxCell>
        <mxCell id="OQUtQliWMoo-Rx1EAT6z-21" value="&lt;font face=&quot;Comic Sans MS&quot; style=&quot;font-size: 14px&quot;&gt;3&lt;/font&gt;" style="rounded=0;whiteSpace=wrap;html=1;fillColor=#dae8fc;strokeColor=#6c8ebf;shadow=1;" vertex="1" parent="1">
          <mxGeometry x="360" y="460" width="40" height="40" as="geometry" />
        </mxCell>
        <mxCell id="OQUtQliWMoo-Rx1EAT6z-22" value="&lt;font face=&quot;Comic Sans MS&quot; style=&quot;font-size: 14px&quot;&gt;1&lt;/font&gt;" style="rounded=0;whiteSpace=wrap;html=1;fillColor=#dae8fc;strokeColor=#6c8ebf;shadow=1;" vertex="1" parent="1">
          <mxGeometry x="400" y="460" width="40" height="40" as="geometry" />
        </mxCell>
        <mxCell id="OQUtQliWMoo-Rx1EAT6z-23" value="&lt;font face=&quot;Comic Sans MS&quot; style=&quot;font-size: 14px&quot;&gt;1&lt;/font&gt;" style="rounded=0;whiteSpace=wrap;html=1;fillColor=#dae8fc;strokeColor=#6c8ebf;shadow=1;" vertex="1" parent="1">
          <mxGeometry x="440" y="460" width="40" height="40" as="geometry" />
        </mxCell>
        <mxCell id="OQUtQliWMoo-Rx1EAT6z-24" value="&lt;font face=&quot;Comic Sans MS&quot; style=&quot;font-size: 14px&quot;&gt;4&lt;/font&gt;" style="rounded=0;whiteSpace=wrap;html=1;fillColor=#dae8fc;strokeColor=#6c8ebf;shadow=1;" vertex="1" parent="1">
          <mxGeometry x="480" y="460" width="40" height="40" as="geometry" />
        </mxCell>
        <mxCell id="OQUtQliWMoo-Rx1EAT6z-25" value="begin" style="text;html=1;strokeColor=none;fillColor=none;align=center;verticalAlign=middle;whiteSpace=wrap;rounded=0;shadow=1;fontFamily=Comic Sans MS;fontSize=14;" vertex="1" parent="1">
          <mxGeometry x="520" y="500" width="40" height="40" as="geometry" />
        </mxCell>
        <mxCell id="OQUtQliWMoo-Rx1EAT6z-26" value="end" style="text;html=1;strokeColor=none;fillColor=none;align=center;verticalAlign=middle;whiteSpace=wrap;rounded=0;shadow=1;fontFamily=Comic Sans MS;fontSize=14;" vertex="1" parent="1">
          <mxGeometry x="640" y="500" width="40" height="40" as="geometry" />
        </mxCell>
        <mxCell id="OQUtQliWMoo-Rx1EAT6z-27" value="" style="rounded=0;whiteSpace=wrap;html=1;shadow=1;fontFamily=Comic Sans MS;fontSize=14;fillColor=#f8cecc;strokeColor=#b85450;" vertex="1" parent="1">
          <mxGeometry x="520" y="460" width="40" height="40" as="geometry" />
        </mxCell>
        <mxCell id="OQUtQliWMoo-Rx1EAT6z-28" value="" style="rounded=0;whiteSpace=wrap;html=1;shadow=1;fontFamily=Comic Sans MS;fontSize=14;fillColor=#f8cecc;strokeColor=#b85450;" vertex="1" parent="1">
          <mxGeometry x="560" y="460" width="40" height="40" as="geometry" />
        </mxCell>
        <mxCell id="OQUtQliWMoo-Rx1EAT6z-29" value="" style="rounded=0;whiteSpace=wrap;html=1;shadow=1;fontFamily=Comic Sans MS;fontSize=14;fillColor=#f8cecc;strokeColor=#b85450;" vertex="1" parent="1">
          <mxGeometry x="600" y="460" width="40" height="40" as="geometry" />
        </mxCell>
        <mxCell id="OQUtQliWMoo-Rx1EAT6z-30" value="" style="rounded=0;whiteSpace=wrap;html=1;shadow=1;fontFamily=Comic Sans MS;fontSize=14;fillColor=#f8cecc;strokeColor=#b85450;" vertex="1" parent="1">
          <mxGeometry x="640" y="460" width="40" height="40" as="geometry" />
        </mxCell>
        <mxCell id="OQUtQliWMoo-Rx1EAT6z-39" style="edgeStyle=orthogonalEdgeStyle;rounded=0;orthogonalLoop=1;jettySize=auto;html=1;exitX=0.5;exitY=0;exitDx=0;exitDy=0;entryX=0.5;entryY=0;entryDx=0;entryDy=0;fontFamily=Comic Sans MS;fontSize=14;curved=1;" edge="1" parent="1" source="OQUtQliWMoo-Rx1EAT6z-32" target="OQUtQliWMoo-Rx1EAT6z-34">
          <mxGeometry relative="1" as="geometry" />
        </mxCell>
        <mxCell id="OQUtQliWMoo-Rx1EAT6z-32" value="&lt;font face=&quot;Comic Sans MS&quot; style=&quot;font-size: 14px&quot;&gt;2&lt;/font&gt;" style="rounded=0;whiteSpace=wrap;html=1;fillColor=#f8cecc;strokeColor=#b85450;shadow=1;" vertex="1" parent="1">
          <mxGeometry x="320" y="180" width="40" height="40" as="geometry" />
        </mxCell>
        <mxCell id="OQUtQliWMoo-Rx1EAT6z-33" value="&lt;font face=&quot;Comic Sans MS&quot; style=&quot;font-size: 14px&quot;&gt;3&lt;/font&gt;" style="rounded=0;whiteSpace=wrap;html=1;fillColor=#dae8fc;strokeColor=#6c8ebf;shadow=1;" vertex="1" parent="1">
          <mxGeometry x="360" y="180" width="40" height="40" as="geometry" />
        </mxCell>
        <mxCell id="OQUtQliWMoo-Rx1EAT6z-34" value="&lt;font face=&quot;Comic Sans MS&quot; style=&quot;font-size: 14px&quot;&gt;1&lt;/font&gt;" style="rounded=0;whiteSpace=wrap;html=1;fillColor=#dae8fc;strokeColor=#6c8ebf;shadow=1;" vertex="1" parent="1">
          <mxGeometry x="400" y="180" width="40" height="40" as="geometry" />
        </mxCell>
        <mxCell id="OQUtQliWMoo-Rx1EAT6z-35" value="&lt;font face=&quot;Comic Sans MS&quot; style=&quot;font-size: 14px&quot;&gt;1&lt;/font&gt;" style="rounded=0;whiteSpace=wrap;html=1;fillColor=#dae8fc;strokeColor=#6c8ebf;shadow=1;" vertex="1" parent="1">
          <mxGeometry x="440" y="180" width="40" height="40" as="geometry" />
        </mxCell>
        <mxCell id="OQUtQliWMoo-Rx1EAT6z-36" value="&lt;font face=&quot;Comic Sans MS&quot; style=&quot;font-size: 14px&quot;&gt;4&lt;/font&gt;" style="rounded=0;whiteSpace=wrap;html=1;fillColor=#dae8fc;strokeColor=#6c8ebf;shadow=1;" vertex="1" parent="1">
          <mxGeometry x="480" y="180" width="40" height="40" as="geometry" />
        </mxCell>
        <mxCell id="OQUtQliWMoo-Rx1EAT6z-37" value="begin, end" style="text;html=1;strokeColor=none;fillColor=none;align=center;verticalAlign=middle;whiteSpace=wrap;rounded=0;shadow=1;fontFamily=Comic Sans MS;fontSize=14;" vertex="1" parent="1">
          <mxGeometry x="300" y="220" width="80" height="40" as="geometry" />
        </mxCell>
        <mxCell id="OQUtQliWMoo-Rx1EAT6z-42" value="" style="rounded=0;whiteSpace=wrap;html=1;shadow=1;fontFamily=Comic Sans MS;fontSize=14;fillColor=#dae8fc;strokeColor=#6c8ebf;" vertex="1" parent="1">
          <mxGeometry x="520" y="370" width="40" height="40" as="geometry" />
        </mxCell>
        <mxCell id="OQUtQliWMoo-Rx1EAT6z-43" value="" style="rounded=0;whiteSpace=wrap;html=1;shadow=1;fontFamily=Comic Sans MS;fontSize=14;fillColor=#dae8fc;strokeColor=#6c8ebf;" vertex="1" parent="1">
          <mxGeometry x="560" y="370" width="40" height="40" as="geometry" />
        </mxCell>
        <mxCell id="OQUtQliWMoo-Rx1EAT6z-44" value="" style="rounded=0;whiteSpace=wrap;html=1;shadow=1;fontFamily=Comic Sans MS;fontSize=14;fillColor=#dae8fc;strokeColor=#6c8ebf;" vertex="1" parent="1">
          <mxGeometry x="600" y="370" width="40" height="40" as="geometry" />
        </mxCell>
        <mxCell id="OQUtQliWMoo-Rx1EAT6z-45" value="" style="rounded=0;whiteSpace=wrap;html=1;shadow=1;fontFamily=Comic Sans MS;fontSize=14;fillColor=#dae8fc;strokeColor=#6c8ebf;" vertex="1" parent="1">
          <mxGeometry x="640" y="370" width="40" height="40" as="geometry" />
        </mxCell>
      </root>
    </mxGraphModel>
  </diagram>
</mxfile>
